<svg xmlns="http://www.w3.org/2000/svg" viewBox="0 0 65.06 54.63"><defs><style>.cls-1{fill:#eabd00;}</style></defs><g id="Capa_2" data-name="Capa 2"><g id="Capa_1-2" data-name="Capa 1"><path class="cls-1" d="M27.6,0h9.87V.28a4.15,4.15,0,0,0-1.29,2.56v.28q8.76,31,10.32,34.12l1.28.84v.5H38.52V38.3l1.23-2.06Q38,29,37.19,29H27.6c-.56.45-1.32,2.86-2.29,7.25l1.28,2.06v.28H17.28v-.5q1.91,0,4.91-12.43,7-22.2,7-23.31L27.6.28Zm4.68,12.43L28.66,24.86l.28.28h7l.51-.55Q32.84,12.43,32.28,12.43Z"/><path class="cls-1" d="M2.38,45.71H4.67v.06a1,1,0,0,0-.3.6v.06q2,7.18,2.38,7.89l.3.19v.12H4.91v-.07l.28-.47c-.27-1.12-.47-1.68-.59-1.68H2.38a4.76,4.76,0,0,0-.52,1.68l.29.47v.07H0v-.12c.29,0,.67-1,1.13-2.87,1.08-3.42,1.61-5.22,1.61-5.39l-.36-.48Zm1.09,2.87-.84,2.88.06.06H4.3l.12-.13A14.63,14.63,0,0,0,3.47,48.58Z"/><path class="cls-1" d="M7.49,46.93h2V47a.76.76,0,0,0-.26.5v6.41h1.54A2.67,2.67,0,0,0,12.64,53v.1l-.77,1.55H7.49v-.07a.79.79,0,0,0,.25-.5V47.5a.79.79,0,0,0-.25-.5Z"/><path class="cls-1" d="M13.14,46.93h4.23a6.34,6.34,0,0,1,.77,1.67,2.61,2.61,0,0,0-1.9-.94H15l-.1.1v2.68l.1.12h1.29a.87.87,0,0,0,.51-.28h.05v1.25h-.05a.85.85,0,0,0-.51-.25H15l-.1.09V53.8l.1.11h1.44A2.65,2.65,0,0,0,18.3,53v.12l-.77,1.55H13.14v-.07a.76.76,0,0,0,.26-.5V47.5a.76.76,0,0,0-.26-.5Z"/><path class="cls-1" d="M18.85,46.92h1.92v0l-.1.26a11.66,11.66,0,0,0,1.15,2.24h.05A8.88,8.88,0,0,0,23,47.18v0l-.1-.16v0h1.92V47c-.26,0-.87,1-1.82,3-.06,0-.21.28-.47.83,1.26,2.42,2,3.63,2.14,3.64l.15.05v.11h-2v-.07l.14-.19v-.1a12.65,12.65,0,0,0-1.08-2.14h-.05a9.67,9.67,0,0,0-1.1,2.24l.1.26h-2v-.11q.43,0,1.56-2.34l.72-1.3a30.32,30.32,0,0,0-2-3.7L18.85,47Z"/><path class="cls-1" d="M27.45,47h2V47a.83.83,0,0,0-.26.5v.06q1.74,6.18,2.05,6.8l.26.15v.11H29.63v-.07l.24-.4c-.24-1-.41-1.44-.52-1.44h-1.9A4.19,4.19,0,0,0,27,54.16l.24.4v.07H25.4v-.11c.25,0,.57-.82,1-2.47.92-2.95,1.38-4.49,1.38-4.64l-.31-.4Zm.93,2.47-.73,2.48.06.05h1.4l.1-.11A12.44,12.44,0,0,0,28.38,49.42Z"/><path class="cls-1" d="M32,47h1.61a28.88,28.88,0,0,1,2.19,4.27h.1v-3.7a.82.82,0,0,0-.26-.52v0h2v0a.87.87,0,0,0-.26.52v6.53a.87.87,0,0,0,.26.52v.05H36a30,30,0,0,1-2.21-4.28h-.1v3.71a.82.82,0,0,0,.26.52v.05H32v-.05a.85.85,0,0,0,.25-.52V47.53A.85.85,0,0,0,32,47Z"/><path class="cls-1" d="M38.13,46.93h4.43c.45.12.67.34.67.67V54c-.11.44-.33.67-.67.67H38.13v-.07a.81.81,0,0,0,.26-.5V47.5a.81.81,0,0,0-.26-.5Zm1.7.78v6.14h1.6a.32.32,0,0,0,.36-.36V48a.43.43,0,0,0-.41-.31H39.83Z"/><path class="cls-1" d="M43.85,46.93h4.2c.42.08.62.29.62.62v3.22c0,.36-.26.58-.78.67v.06c1,1.63,1.6,2.5,1.69,2.6q.41.36.57.36v.1H49c-.58,0-1.11-.49-1.59-1.48a14.06,14.06,0,0,0-1.13-1.69H45.7c-.07,0-.11,0-.11.11v2.44a.93.93,0,0,0,.3.57v.05h-2v-.05a.93.93,0,0,0,.3-.57V47.55a.94.94,0,0,0-.3-.56Zm1.74.88v2.76a.1.1,0,0,0,.11.1h1.06a.52.52,0,0,0,.47-.36V48.07a.52.52,0,0,0-.47-.36H45.7C45.63,47.72,45.59,47.75,45.59,47.81Z"/><path class="cls-1" d="M50.39,46.93h2V47a.85.85,0,0,0-.25.51v6.56a.79.79,0,0,0,.25.5v.07h-2v-.07a.79.79,0,0,0,.25-.5V47.5a.85.85,0,0,0-.25-.51Z"/><path class="cls-1" d="M52.86,47h1.61a28.88,28.88,0,0,1,2.19,4.27h.1v-3.7a.85.85,0,0,0-.25-.52v0h2v0a.82.82,0,0,0-.26.52v6.53a.82.82,0,0,0,.26.52v.05h-1.6a30,30,0,0,1-2.21-4.28h-.1v3.71a.87.87,0,0,0,.26.52v.05h-2v-.05a.87.87,0,0,0,.26-.52V47.53a.87.87,0,0,0-.26-.52Z"/><path class="cls-1" d="M61,47h2V47a.81.81,0,0,0-.25.5v.06q1.74,6.18,2.05,6.8l.25.15v.11H63.22v-.07l.25-.4c-.25-1-.42-1.44-.52-1.44H61a4.19,4.19,0,0,0-.45,1.44l.25.4v.07H59v-.11c.25,0,.58-.82,1-2.47.92-2.95,1.38-4.49,1.38-4.64L61,47ZM62,49.42l-.72,2.48,0,.05h1.41l.1-.11A11.21,11.21,0,0,0,62,49.42Z"/></g></g></svg>